<svg viewBox="-32 1 511 511.99992" xmlns="http://www.w3.org/2000/svg"><path d="m164.222656 210.980469h-118.914062c-31.480469 0-52.929688 31.449219-41.859375 60.894531 18.015625 47.898438 26.3125 66.222656 26.3125 114.738281v34.382813h30v91.003906h90.007812v-91.003906h30v-34.382813c0-48.742187 8.425781-67.160156 26.3125-114.738281 11.078125-29.464844-10.402343-60.894531-41.859375-60.894531zm13.777344 50.332031c-18.453125 49.089844-28.230469 71.425781-28.230469 125.300781v4.378907h-30.003906v91.003906h-30v-91.003906h-30.003906v-4.378907c0-53.882812-9.820313-76.324219-28.230469-125.300781-3.734375-9.933594 3.292969-20.328125 13.777344-20.328125h118.914062c10.488282 0 17.511719 10.398437 13.777344 20.328125zm0 0"/><path d="m404.238281 210.980469h-118.914062c-31.480469 0-52.929688 31.449219-41.859375 60.894531 18.015625 47.898438 26.3125 66.222656 26.3125 114.738281v34.382813h30.003906v91.003906h90.003906v-91.003906h30v-34.382813c0-48.742187 8.425782-67.160156 26.3125-114.738281 11.078125-29.464844-10.40625-60.894531-41.859375-60.894531zm13.777344 50.332031c-18.453125 49.089844-28.230469 71.425781-28.230469 125.300781v4.378907h-30.003906v91.003906h-30v-91.003906h-30.003906v-4.378907c0-53.882812-9.824219-76.324219-28.230469-125.300781-3.734375-9.933594 3.292969-20.328125 13.777344-20.328125h118.914062c10.488281 0 17.511719 10.398437 13.777344 20.328125zm0 0"/><path d="m149.769531 165.976562c0-24.8125-20.1875-45-45.003906-45-24.8125 0-45.003906 20.1875-45.003906 45 0 24.816407 20.191406 45.003907 45.003906 45.003907 24.816406 0 45.003906-20.1875 45.003906-45.003907zm-45.003906 15.003907c-8.269531 0-15-6.730469-15-15.003907 0-8.269531 6.730469-15 15-15 8.273437 0 15 6.730469 15 15 0 8.273438-6.726563 15.003907-15 15.003907zm0 0"/><path d="m389.785156 165.976562c0-24.8125-20.1875-45-45.003906-45s-45.003906 20.1875-45.003906 45c0 24.816407 20.1875 45.003907 45.003906 45.003907s45.003906-20.1875 45.003906-45.003907zm-45.003906 15.003907c-8.273438 0-15-6.730469-15-15.003907 0-8.269531 6.726562-15 15-15s15 6.730469 15 15c0 8.273438-6.726562 15.003907-15 15.003907zm0 0"/><path d="m312.203125 17.546875c-23.394531-23.394531-61.460937-23.394531-84.851563 0l-2.578124 2.578125-2.578126-2.578125c-23.394531-23.394531-61.457031-23.394531-84.847656-.003906-23.46875 23.449219-23.464844 62.410156-.003906 85.855469l87.429688 87.425781 87.421874-87.421875c23.472657-23.449219 23.46875-62.414063.007813-85.855469zm-21.214844 64.636719-66.214843 66.210937-66.21875-66.214843c-11.734376-11.726563-11.730469-31.695313.003906-43.421876 11.699218-11.695312 30.726562-11.695312 42.421875 0l23.792969 23.792969 23.792968-23.792969c11.695313-11.691406 30.726563-11.695312 42.425782.003907 11.734374 11.726562 11.730468 31.695312-.003907 43.421875zm0 0"/></svg>